<mxfile host="app.diagrams.net" modified="2022-08-03T08:30:49.930Z" agent="5.0 (Windows NT 10.0; Win64; x64) AppleWebKit/537.36 (KHTML, like Gecko) Chrome/103.0.0.0 Safari/537.36" etag="PC5YbkjRC1cDNwkCoeu2" version="20.2.2" type="github">
  <diagram id="C5RBs43oDa-KdzZeNtuy" name="Page-1">
    <mxGraphModel dx="2062" dy="1098" grid="1" gridSize="10" guides="1" tooltips="1" connect="1" arrows="1" fold="1" page="1" pageScale="1" pageWidth="827" pageHeight="1169" math="0" shadow="0">
      <root>
        <mxCell id="WIyWlLk6GJQsqaUBKTNV-0" />
        <mxCell id="WIyWlLk6GJQsqaUBKTNV-1" parent="WIyWlLk6GJQsqaUBKTNV-0" />
        <mxCell id="RvOH7EZxIjrcq0N_DRn_-0" value="&lt;b&gt;&lt;font style=&quot;font-size: 18px;&quot;&gt;WaitReq&lt;/font&gt;&lt;/b&gt;" style="ellipse;whiteSpace=wrap;html=1;" parent="WIyWlLk6GJQsqaUBKTNV-1" vertex="1">
          <mxGeometry x="330" y="140" width="140" height="100" as="geometry" />
        </mxCell>
        <mxCell id="RvOH7EZxIjrcq0N_DRn_-1" value="&lt;b&gt;&lt;font style=&quot;font-size: 18px;&quot;&gt;Wait&lt;br&gt;TickerData&lt;/font&gt;&lt;/b&gt;" style="ellipse;whiteSpace=wrap;html=1;" parent="WIyWlLk6GJQsqaUBKTNV-1" vertex="1">
          <mxGeometry x="330" y="410" width="120" height="80" as="geometry" />
        </mxCell>
        <mxCell id="RvOH7EZxIjrcq0N_DRn_-2" value="&lt;b&gt;&lt;font style=&quot;font-size: 18px;&quot;&gt;Wait&lt;br&gt;RefreshData&lt;/font&gt;&lt;/b&gt;" style="ellipse;whiteSpace=wrap;html=1;" parent="WIyWlLk6GJQsqaUBKTNV-1" vertex="1">
          <mxGeometry x="710" y="410" width="120" height="80" as="geometry" />
        </mxCell>
        <mxCell id="RvOH7EZxIjrcq0N_DRn_-3" value="&lt;b&gt;&lt;font style=&quot;font-size: 18px;&quot;&gt;Relax&lt;/font&gt;&lt;/b&gt;" style="ellipse;whiteSpace=wrap;html=1;" parent="WIyWlLk6GJQsqaUBKTNV-1" vertex="1">
          <mxGeometry x="550" y="680" width="120" height="80" as="geometry" />
        </mxCell>
        <mxCell id="RvOH7EZxIjrcq0N_DRn_-4" value="" style="endArrow=classic;html=1;rounded=0;fontSize=18;" parent="WIyWlLk6GJQsqaUBKTNV-1" edge="1">
          <mxGeometry width="50" height="50" relative="1" as="geometry">
            <mxPoint x="470" y="450" as="sourcePoint" />
            <mxPoint x="700" y="450" as="targetPoint" />
          </mxGeometry>
        </mxCell>
        <mxCell id="RvOH7EZxIjrcq0N_DRn_-5" value="收到 ticker data" style="text;strokeColor=none;fillColor=none;align=left;verticalAlign=middle;spacingLeft=4;spacingRight=4;overflow=hidden;points=[[0,0.5],[1,0.5]];portConstraint=eastwest;rotatable=0;fontSize=18;" parent="WIyWlLk6GJQsqaUBKTNV-1" vertex="1">
          <mxGeometry x="510" y="419" width="140" height="30" as="geometry" />
        </mxCell>
        <mxCell id="RvOH7EZxIjrcq0N_DRn_-10" value="" style="endArrow=classic;html=1;rounded=0;fontSize=18;" parent="WIyWlLk6GJQsqaUBKTNV-1" edge="1">
          <mxGeometry width="50" height="50" relative="1" as="geometry">
            <mxPoint x="640" y="640" as="sourcePoint" />
            <mxPoint x="730" y="510" as="targetPoint" />
          </mxGeometry>
        </mxCell>
        <mxCell id="RvOH7EZxIjrcq0N_DRn_-11" value="收到 ticker data" style="text;strokeColor=none;fillColor=none;align=left;verticalAlign=middle;spacingLeft=4;spacingRight=4;overflow=hidden;points=[[0,0.5],[1,0.5]];portConstraint=eastwest;rotatable=0;fontSize=18;" parent="WIyWlLk6GJQsqaUBKTNV-1" vertex="1">
          <mxGeometry x="560" y="530" width="140" height="30" as="geometry" />
        </mxCell>
        <mxCell id="RvOH7EZxIjrcq0N_DRn_-12" value="" style="endArrow=classic;html=1;rounded=0;fontSize=18;" parent="WIyWlLk6GJQsqaUBKTNV-1" edge="1">
          <mxGeometry width="50" height="50" relative="1" as="geometry">
            <mxPoint x="754" y="520" as="sourcePoint" />
            <mxPoint x="660" y="660" as="targetPoint" />
          </mxGeometry>
        </mxCell>
        <mxCell id="RvOH7EZxIjrcq0N_DRn_-13" value="收到 refresh data" style="text;strokeColor=none;fillColor=none;align=left;verticalAlign=middle;spacingLeft=4;spacingRight=4;overflow=hidden;points=[[0,0.5],[1,0.5]];portConstraint=eastwest;rotatable=0;fontSize=18;" parent="WIyWlLk6GJQsqaUBKTNV-1" vertex="1">
          <mxGeometry x="700" y="590" width="220" height="30" as="geometry" />
        </mxCell>
        <mxCell id="RvOH7EZxIjrcq0N_DRn_-14" value="" style="curved=1;endArrow=classic;html=1;rounded=0;fontSize=18;" parent="WIyWlLk6GJQsqaUBKTNV-1" edge="1">
          <mxGeometry width="50" height="50" relative="1" as="geometry">
            <mxPoint x="840" y="480" as="sourcePoint" />
            <mxPoint x="840" y="410" as="targetPoint" />
            <Array as="points">
              <mxPoint x="890" y="480" />
              <mxPoint x="890" y="410" />
            </Array>
          </mxGeometry>
        </mxCell>
        <mxCell id="RvOH7EZxIjrcq0N_DRn_-15" value="收到 ticker data" style="text;strokeColor=none;fillColor=none;align=left;verticalAlign=middle;spacingLeft=4;spacingRight=4;overflow=hidden;points=[[0,0.5],[1,0.5]];portConstraint=eastwest;rotatable=0;fontSize=18;" parent="WIyWlLk6GJQsqaUBKTNV-1" vertex="1">
          <mxGeometry x="894" y="427" width="140" height="30" as="geometry" />
        </mxCell>
        <mxCell id="RvOH7EZxIjrcq0N_DRn_-16" value="" style="curved=1;endArrow=classic;html=1;rounded=0;fontSize=18;" parent="WIyWlLk6GJQsqaUBKTNV-1" edge="1">
          <mxGeometry width="50" height="50" relative="1" as="geometry">
            <mxPoint x="480" y="225" as="sourcePoint" />
            <mxPoint x="480" y="155" as="targetPoint" />
            <Array as="points">
              <mxPoint x="530" y="225" />
              <mxPoint x="530" y="155" />
            </Array>
          </mxGeometry>
        </mxCell>
        <mxCell id="RvOH7EZxIjrcq0N_DRn_-17" value="收到各类请求" style="text;strokeColor=none;fillColor=none;align=left;verticalAlign=middle;spacingLeft=4;spacingRight=4;overflow=hidden;points=[[0,0.5],[1,0.5]];portConstraint=eastwest;rotatable=0;fontSize=18;" parent="WIyWlLk6GJQsqaUBKTNV-1" vertex="1">
          <mxGeometry x="534" y="172" width="276" height="30" as="geometry" />
        </mxCell>
        <mxCell id="dXgrdsHbQNj4BxizVKDg-0" value="&lt;b&gt;发送端&lt;br&gt;MsgReceiver 的初始状态：&lt;/b&gt;" style="text;html=1;strokeColor=none;fillColor=none;align=center;verticalAlign=middle;whiteSpace=wrap;rounded=0;fontSize=18;" parent="WIyWlLk6GJQsqaUBKTNV-1" vertex="1">
          <mxGeometry x="80" y="130" width="240" height="110" as="geometry" />
        </mxCell>
        <mxCell id="dXgrdsHbQNj4BxizVKDg-1" value="&lt;b&gt;接收端&lt;br&gt;MsgReceiver 的初始状态：&lt;/b&gt;" style="text;html=1;strokeColor=none;fillColor=none;align=center;verticalAlign=middle;whiteSpace=wrap;rounded=0;fontSize=18;" parent="WIyWlLk6GJQsqaUBKTNV-1" vertex="1">
          <mxGeometry x="80" y="395" width="240" height="110" as="geometry" />
        </mxCell>
        <mxCell id="dXgrdsHbQNj4BxizVKDg-2" value="" style="curved=1;endArrow=classic;html=1;rounded=0;fontSize=18;" parent="WIyWlLk6GJQsqaUBKTNV-1" edge="1">
          <mxGeometry width="50" height="50" relative="1" as="geometry">
            <mxPoint x="677" y="760" as="sourcePoint" />
            <mxPoint x="677" y="690" as="targetPoint" />
            <Array as="points">
              <mxPoint x="727" y="760" />
              <mxPoint x="727" y="690" />
            </Array>
          </mxGeometry>
        </mxCell>
        <mxCell id="dXgrdsHbQNj4BxizVKDg-3" value="收到 增量数据" style="text;strokeColor=none;fillColor=none;align=left;verticalAlign=middle;spacingLeft=4;spacingRight=4;overflow=hidden;points=[[0,0.5],[1,0.5]];portConstraint=eastwest;rotatable=0;fontSize=18;" parent="WIyWlLk6GJQsqaUBKTNV-1" vertex="1">
          <mxGeometry x="740" y="705" width="140" height="30" as="geometry" />
        </mxCell>
      </root>
    </mxGraphModel>
  </diagram>
</mxfile>
